# xmcd
#
# Track frame offsets:
# 150
# 17580
# 49635
# 67270
# 80778
# 100083
# 114840
# 139810
# 152673
# 173765
# 192948
# 210145
# 230510
# 264653
#
# Disc length: 3739 seconds
#
#
# Revision: 6
# Processed by: cddbd v1.5.1PL2 Copyright (c) Steve Scherf et al.
# Submitted via: FreeRIP 2.945 
#
DISCID=b60e990e
DTITLE=Bob Marley - Legend
DYEAR=1995
DGENRE=Blues
TTITLE0=Bob Marley and the Wailers - 1
TTITLE1=Bob Marley and the Wailers - 2
TTITLE2=Bob Marley and the Wailers - 3
TTITLE3=Bob Marley and the Wailers - 4
TTITLE4=Bob Marley and the Wailers - 5
TTITLE5=Bob Marley and the Wailers - 6
TTITLE6=Bob Marley and the Wailers - 7
TTITLE7=Bob Marley and the Wailers - 8
TTITLE8=Bob Marley and the Wailers - 9
TTITLE9=Bob Marley and the Wailers - 10
TTITLE10=Bob Marley and the Wailers - 11
TTITLE11=Bob Marley and the Wailers - 12
TTITLE12=Bob Marley and the Wailers - 13
TTITLE13=Bob Marley and the Wailers - 14
EXTD=f YEAR: 1995
EXTT0=
EXTT1=
EXTT2=
EXTT3=
EXTT4=
EXTT5=
EXTT6=
EXTT7=
EXTT8=
EXTT9=
EXTT10=
EXTT11=
EXTT12=
EXTT13=
PLAYORDER=
